<?xml version="1.0" encoding="utf-8"?>
<!-- Generator: Adobe Illustrator 27.5.0, SVG Export Plug-In . SVG Version: 6.00 Build 0)  -->
<svg version="1.1" xmlns="http://www.w3.org/2000/svg" xmlns:xlink="http://www.w3.org/1999/xlink" x="0px" y="0px"
	 viewBox="0 0 500 500" style="enable-background:new 0 0 500 500;" xml:space="preserve">
<g id="BACKGROUND">
	<rect style="fill:#F6F6F6;" width="500" height="500"/>
</g>
<g id="OBJECTS">
	<g>
		<g>
			<polygon style="fill:#E8E9ED;" points="500,345.117 500,269.348 483.839,252.068 458.825,259.379 458.825,297.263 
				458.825,347.111 432.086,347.111 432.086,321.19 423.46,321.19 423.46,309.227 407.072,309.227 407.072,321.19 398.446,321.19 
				398.446,336.477 363.944,336.477 363.944,264.696 354.456,264.696 343.243,297.263 343.243,323.849 311.329,323.849 
				311.329,262.702 305.291,248.08 298.391,246.751 298.391,236.116 290.628,232.793 290.628,241.433 277.69,244.757 277.69,331.16 
				238.875,331.16 238.875,287.294 233.7,283.306 233.7,264.696 223.349,264.696 223.349,254.061 206.961,254.061 206.961,262.037 
				193.16,262.037 193.16,266.69 206.961,266.69 206.961,346.447 198.335,346.447 198.335,324.513 186.26,324.513 186.26,294.063 
				176.068,294.063 164.696,302.825 164.696,325.178 142.27,325.178 142.27,285.3 133.644,285.3 133.644,279.983 118.118,279.983 
				118.118,286.629 102.593,286.629 102.593,337.142 85.342,337.142 85.342,305.904 74.991,305.904 74.991,295.269 68.091,295.269 
				68.091,279.983 58.603,287.958 58.603,302.825 54.29,302.825 54.29,318.532 47.39,318.532 47.39,361.733 26.688,361.733 
				26.688,314.852 0.237,314.852 0.237,428.56 500,428.56 			"/>
			<path style="fill:#D3D4D9;" d="M456.31,379.993v-16.708h-7.274v16.708h-3.932v-7.036h-4.718v7.036h-21.187v-16.23h-3.688v16.23
				h-1.347v-41.451h-6.611v22.443h-4.321v19.008H399.3v-9.337h-4.718v9.337h-21.187v-18.531h-3.687v18.531h-1.347v-43.751h-6.611
				v43.751h-2.556v-2.301l-0.015,2.301h-33.021h-0.495h-46.921v-29.442h-4.813v26.562h-2.188v-44.527h-3.64v33.394h-35.283h-8.323
				v-32.022l-9.513-19.619l-17.893,35.706h-9.252v33.787h-10.041l-3.105-8.964h-9.94l-3.29,8.964h-21.64h-15.569v20.933h-2.556
				v-48.292h-5.308v55.895h-1.966v-37.499h-5.112v23.885h-5.308v-45.119h-6.881v70.416h-1.966v-42.893H89.65v0.202H45.128v-5.499
				v-4.789l-2.237,0.066l0.033-35.556c-1.502-13.219-6.61-13.013-6.61-13.013v47.095h-5.609v11.696H0v68.901h82.572h7.683h235.407
				h0.117h78.84h5.125h6.173h40.392H500v-70.267H456.31z"/>
			<rect y="450.26" style="fill:#C3C4C6;" width="500" height="8.708"/>
		</g>
		<g>
			<g>
				<path style="fill:#010101;" d="M176.637,450.26H68.89c-7.984,0-14.456-6.472-14.456-14.456V202.001
					c0-7.984,6.472-14.456,14.456-14.456h107.747c7.984,0,14.456,6.472,14.456,14.456v233.803
					C191.093,443.788,184.621,450.26,176.637,450.26z"/>
				<rect x="63.985" y="213.322" style="fill:#FFFFFF;" width="117.556" height="211.16"/>
				
					<ellipse transform="matrix(0.1598 -0.9872 0.9872 0.1598 -327.8591 488.0396)" style="fill:#F7F9F8;" cx="122.763" cy="436.617" rx="8.045" ry="8.045"/>
				<path style="fill:#F7F9F8;" d="M136.787,200.99h-28.048c-0.53,0-0.964-0.434-0.964-0.964v-0.716c0-0.53,0.434-0.964,0.964-0.964
					h28.048c0.53,0,0.964,0.434,0.964,0.964v0.716C137.752,200.556,137.318,200.99,136.787,200.99z"/>
				<path style="fill:#F7F9F8;" d="M143.703,199.668c0,1.298-1.053,2.351-2.351,2.351c-1.298,0-2.351-1.053-2.351-2.351
					c0-1.298,1.053-2.351,2.351-2.351C142.65,197.317,143.703,198.369,143.703,199.668z"/>
				<g>
					<g>
						<path style="fill:#E6E6E6;" d="M159.444,229.196h-77.99v-8.757h77.99c1.763,0,3.193,1.429,3.193,3.192v2.372
							C162.637,227.766,161.207,229.196,159.444,229.196z"/>
						<g>
							
								<text transform="matrix(1 0 0 1 107.8697 227.7444)" style="fill:#5B5C5E; font-family:'Metropolis-Medium'; font-size:6.9543px;">SEARCH</text>
						</g>
					</g>
					<g>
						<g>
							
								<line style="fill:none;stroke:#5B5C5E;stroke-linecap:round;stroke-linejoin:round;stroke-miterlimit:10;" x1="165.853" y1="221.984" x2="178.3" y2="221.984"/>
							
								<line style="fill:none;stroke:#5B5C5E;stroke-linecap:round;stroke-linejoin:round;stroke-miterlimit:10;" x1="165.853" y1="224.388" x2="178.3" y2="224.388"/>
							
								<line style="fill:none;stroke:#5B5C5E;stroke-linecap:round;stroke-linejoin:round;stroke-miterlimit:10;" x1="165.853" y1="226.921" x2="178.3" y2="226.921"/>
						</g>
						<polygon style="fill:#5B5C5E;" points="71.244,222.121 67.227,223.803 69.584,225.598 68.457,227.228 70.608,228.796 
							71.791,227.278 74.158,229.079 74.709,224.759 75.261,220.439 						"/>
					</g>
				</g>
				<g>
					
						<ellipse transform="matrix(0.1652 -0.9863 0.9863 0.1652 -158.1375 341.6691)" style="fill:#F9CE0E;" cx="122.763" cy="264.25" rx="23.364" ry="23.364"/>
					
						<ellipse transform="matrix(0.1652 -0.9863 0.9863 0.1652 -158.1358 341.6752)" style="fill:#F7F9F8;" cx="122.763" cy="264.25" rx="21.739" ry="21.739"/>
					<g>
						<path style="fill:#F9CE0E;" d="M128.587,256.756c0,3.145-2.549,5.694-5.694,5.694c-3.145,0-5.694-2.549-5.694-5.694
							c0-3.145,2.549-5.694,5.694-5.694C126.038,251.062,128.587,253.611,128.587,256.756z"/>
						<path style="fill:#F9CE0E;" d="M131.996,278.739H113.53c-0.455,0-0.824-0.369-0.824-0.824v-7.596
							c0-4.05,3.283-7.333,7.333-7.333h5.448c4.05,0,7.333,3.283,7.333,7.333v7.596C132.821,278.37,132.452,278.739,131.996,278.739
							z"/>
					</g>
				</g>
				<g>
					<path style="fill:#E6E6E6;" d="M146.701,313.624h-69.38c-2.239,0-4.071-1.832-4.071-4.072v-3.025
						c0-2.239,1.832-4.072,4.071-4.072h69.38c2.239,0,4.072,1.832,4.072,4.072v3.025
						C150.772,311.792,148.94,313.624,146.701,313.624z"/>
					<g>
						<path style="fill:#F9CE0E;" d="M169.719,313.624h-10.46c-1.407,0-2.558-1.151-2.558-2.558v-6.052
							c0-1.407,1.151-2.558,2.558-2.558h10.46c1.407,0,2.558,1.151,2.558,2.558v6.052
							C172.277,312.473,171.126,313.624,169.719,313.624z"/>
						<polygon style="fill:#5B5C5E;" points="160.715,305.78 168.264,305.78 164.489,311.401 						"/>
					</g>
					<path style="fill:#E6E6E6;" d="M146.701,335.225h-69.38c-2.239,0-4.071-1.832-4.071-4.071v-3.025
						c0-2.239,1.832-4.071,4.071-4.071h69.38c2.239,0,4.072,1.832,4.072,4.071v3.025
						C150.772,333.392,148.94,335.225,146.701,335.225z"/>
					<g>
						<path style="fill:#F9CE0E;" d="M169.719,335.225h-10.46c-1.407,0-2.558-1.151-2.558-2.558v-6.052
							c0-1.407,1.151-2.558,2.558-2.558h10.46c1.407,0,2.558,1.151,2.558,2.558v6.052
							C172.277,334.073,171.126,335.225,169.719,335.225z"/>
						<polygon style="fill:#5B5C5E;" points="160.715,327.381 168.264,327.381 164.489,333.002 						"/>
					</g>
					<path style="fill:#E6E6E6;" d="M146.701,359.239h-69.38c-2.239,0-4.071-1.832-4.071-4.071v-3.025
						c0-2.239,1.832-4.071,4.071-4.071h69.38c2.239,0,4.072,1.832,4.072,4.071v3.025
						C150.772,357.407,148.94,359.239,146.701,359.239z"/>
					<g>
						<path style="fill:#F9CE0E;" d="M169.719,359.239h-10.46c-1.407,0-2.558-1.151-2.558-2.558v-6.052
							c0-1.407,1.151-2.558,2.558-2.558h10.46c1.407,0,2.558,1.151,2.558,2.558v6.052
							C172.277,358.088,171.126,359.239,169.719,359.239z"/>
						<polygon style="fill:#5B5C5E;" points="160.715,351.396 168.264,351.396 164.489,357.017 						"/>
					</g>
				</g>
				<g>
					<g>
						<g>
							<path style="fill:#F9CE0E;" d="M171.053,388.642c0-4.57-3.705-8.275-8.275-8.275c-4.57,0-8.275,3.705-8.275,8.275
								c0,1.5,0.401,2.906,1.099,4.119l0,0l7.176,12.121l7.176-12.121l0,0C170.652,391.548,171.053,390.142,171.053,388.642z"/>
							<path style="fill:#FFFFFF;" d="M168.778,388.642c0,3.313-2.686,6-6,6c-3.313,0-5.999-2.686-5.999-6c0-3.314,2.686-6,5.999-6
								C166.091,382.642,168.778,385.328,168.778,388.642z"/>
						</g>
						<g>
							<rect x="160.19" y="388.458" style="fill:#F9CE0E;" width="5.536" height="3.154"/>
							<polyline style="fill:#F9CE0E;" points="159.353,388.458 162.95,385.434 166.563,388.458 							"/>
						</g>
					</g>
					<g>
						<g>
							<path style="fill:#FF4838;" d="M91.024,388.642c0-4.57-3.705-8.275-8.275-8.275c-4.57,0-8.275,3.705-8.275,8.275
								c0,1.5,0.401,2.906,1.099,4.119l0,0l7.176,12.121l7.176-12.121l0,0C90.623,391.548,91.024,390.142,91.024,388.642z"/>
							<path style="fill:#FFFFFF;" d="M88.748,388.642c0,3.313-2.686,6-5.999,6c-3.313,0-6-2.686-6-6c0-3.314,2.686-6,6-6
								C86.062,382.642,88.748,385.328,88.748,388.642z"/>
						</g>
						<path style="fill:#FF4838;" d="M86.44,389.981c0.001-0.449-0.017-1.041-0.017-1.041s0-0.002-0.001-0.005
							c0-0.001,0-0.001,0-0.002c0-0.001-0.001-0.003-0.001-0.005c0-0.001,0-0.001,0-0.002c0-0.002-0.001-0.005-0.002-0.008
							c0-0.001,0-0.002-0.001-0.003c-0.001-0.003-0.001-0.007-0.002-0.01c0-0.001,0-0.002-0.001-0.003
							c-0.001-0.004-0.002-0.008-0.003-0.013c0-0.001,0-0.002-0.001-0.003c-0.001-0.005-0.003-0.01-0.004-0.015
							c0-0.001-0.001-0.002-0.001-0.003c-0.002-0.006-0.003-0.012-0.005-0.018c0-0.001,0-0.001-0.001-0.002
							c-0.002-0.007-0.004-0.014-0.006-0.021c0,0,0,0,0-0.001c-0.062-0.198-0.257-0.609-0.839-0.871c0,0,0.591,0.079,0.669-0.158
							c0.074-0.221-0.059-0.373-0.559-0.36c-0.125,0.003-0.24,0.078-0.28,0.197c-0.003,0.008-0.005,0.017-0.007,0.025l-0.569-0.903
							c-0.063-0.1-0.172-0.164-0.29-0.169l-0.716-0.031l-0.093-0.621c-0.014-0.096-0.097-0.167-0.193-0.167h-0.759H82.74h-0.759
							c-0.097,0-0.179,0.071-0.193,0.167l-0.093,0.621l-0.716,0.031c-0.119,0.005-0.227,0.068-0.291,0.169l-0.568,0.903
							c-0.002-0.009-0.005-0.017-0.007-0.025c-0.04-0.118-0.156-0.193-0.28-0.197c-0.5-0.013-0.633,0.139-0.559,0.36
							c0.079,0.236,0.67,0.158,0.67,0.158c-0.055,0.025-0.107,0.051-0.156,0.079l0,0l0,0c-0.462,0.26-0.627,0.614-0.683,0.792
							c0,0,0,0,0,0.001c-0.002,0.007-0.004,0.014-0.006,0.021c0,0.001,0,0.001-0.001,0.002c-0.002,0.006-0.004,0.012-0.005,0.018
							c0,0.001,0,0.002-0.001,0.003c-0.001,0.005-0.003,0.01-0.004,0.015c0,0.001,0,0.002-0.001,0.003
							c-0.001,0.004-0.002,0.009-0.003,0.013c0,0.001,0,0.002-0.001,0.003c-0.001,0.004-0.002,0.007-0.002,0.01
							c0,0.001,0,0.002-0.001,0.003c-0.001,0.003-0.001,0.005-0.002,0.008c0,0.001,0,0.002,0,0.002c0,0.002-0.001,0.004-0.001,0.005
							c0,0.001,0,0.001,0,0.002c0,0.003-0.001,0.005-0.001,0.005s-0.01,0.318-0.015,0.664c-0.006,0.362-0.006,0.707,0.015,0.832
							c0.039,0.236,0.197,0.315,0.197,0.315h0l0,0.012v0.361c0,0.043,0.008,0.084,0.022,0.124c0.003,0.007,0.005,0.015,0.008,0.022
							c0.001,0.003,0.003,0.006,0.004,0.009c0.005,0.012,0.011,0.023,0.017,0.034c0.003,0.006,0.007,0.011,0.011,0.016
							c0.005,0.007,0.009,0.013,0.014,0.02c0.032,0.042,0.072,0.077,0.12,0.102c0.088,0.046,0.172,0.063,0.25,0.062
							c0.003,0,0.005,0,0.008,0c0.002,0,0.005,0,0.008,0c0.078,0,0.162-0.017,0.25-0.062c0.048-0.025,0.089-0.06,0.12-0.102
							c0.005-0.006,0.009-0.013,0.014-0.02c0.004-0.005,0.007-0.011,0.011-0.016c0.006-0.011,0.012-0.022,0.017-0.034
							c0.001-0.003,0.003-0.006,0.004-0.009c0.003-0.007,0.005-0.014,0.008-0.022c0.014-0.039,0.022-0.081,0.022-0.124v-0.334h2.461
							h0.215h2.462l0.002,0.344c0,0.124,0.065,0.24,0.173,0.299c0.13,0.072,0.323,0.127,0.536,0.017
							c0.121-0.063,0.196-0.189,0.196-0.326v-0.373h0.003c0,0,0.154-0.079,0.194-0.315C86.437,390.355,86.441,390.188,86.44,389.981
							z"/>
					</g>
				</g>
				<g>
					<g>
						
							<line style="fill:none;stroke:#5B5C5E;stroke-width:0.5;stroke-miterlimit:10;" x1="86.307" y1="404.882" x2="87.807" y2="404.882"/>
						
							<line style="fill:none;stroke:#5B5C5E;stroke-width:0.5;stroke-miterlimit:10;stroke-dasharray:3.0397,3.0397;" x1="90.847" y1="404.882" x2="156.2" y2="404.882"/>
						
							<line style="fill:none;stroke:#5B5C5E;stroke-width:0.5;stroke-miterlimit:10;" x1="157.719" y1="404.882" x2="159.219" y2="404.882"/>
					</g>
				</g>
				<g>
					
						<text transform="matrix(1 0 0 1 112.7271 397.97)" style="fill:#5B5C5E; font-family:'Metropolis-Medium'; font-size:6.9543px;">10 km</text>
				</g>
			</g>
			<g>
				<path style="fill:#F0C60D;" d="M251.182,328.622l-3.199-0.31c0,0,4.263-10.674-6.952-10.469
					c-3.913,0.072-7.946-0.006-11.723,1.171c-0.594,0.185-1.182,0.404-1.707,0.737c-1.299,0.827-1.837,2.362-1.846,3.848
					c-0.016,2.446,0.8,5.22,2.429,7.078c1.743,1.988,4.322,2.834,6.904,2.952c10.503,0.479,14.521,0.115,14.521,0.115"/>
				<path style="fill:#F0C60D;" d="M419.817,328.622l3.199-0.31c0,0-4.263-10.674,6.952-10.469
					c3.913,0.072,7.946-0.006,11.723,1.171c0.594,0.185,1.182,0.404,1.707,0.737c1.299,0.827,1.837,2.362,1.846,3.848
					c0.016,2.446-0.8,5.22-2.429,7.078c-1.743,1.988-4.322,2.834-6.904,2.952c-10.503,0.479-14.521,0.115-14.521,0.115"/>
				<path style="fill:#F9CE0E;" d="M439.715,357.947l-10.712-16.05l-4.286-9.28l-20.267-34.245
					c-2.872-4.853-7.955-7.974-13.582-8.34l-44.412-2.887c-7.246-0.471-14.516-0.471-21.762,0l-44.412,2.887
					c-5.627,0.366-10.71,3.487-13.582,8.34l-20.268,34.245l-4.286,9.28l-10.712,16.05c-4.174,6.255-6.209,13.694-5.799,21.202
					l2.202,40.3c0.334,6.104,5.38,10.883,11.493,10.883h96.244h96.244c6.113,0,11.16-4.779,11.493-10.883l2.202-40.3
					C445.924,371.64,443.89,364.201,439.715,357.947z"/>
				<path style="fill:#EFC307;" d="M238.301,347.658l-6.867,10.289c-4.174,6.255-6.209,13.694-5.799,21.202l2.202,40.3
					c0.333,6.104,5.38,10.883,11.493,10.883h96.244h96.244c6.113,0,11.16-4.779,11.493-10.883l2.202-40.3
					c0.41-7.508-1.624-14.947-5.799-21.202l-5.174-7.752c-24.129,9.512-57.822,15.42-95.11,15.42
					C298.931,365.615,262.67,358.646,238.301,347.658z"/>
				<path style="fill:#010101;" d="M243.81,450.26h-4.714c-6.746,0-12.214-5.469-12.214-12.214v-30.214h29.143v30.214
					C256.024,444.792,250.556,450.26,243.81,450.26z"/>
				<path style="fill:#010101;" d="M427.215,450.26h4.714c6.746,0,12.214-5.469,12.214-12.214v-30.214h-29.143v30.214
					C415.001,444.792,420.469,450.26,427.215,450.26z"/>
				<path style="fill:#010101;" d="M416.575,325.534l-9.451-20.037c-2.358-4.999-7.294-8.278-12.816-8.514l-58.733-2.509
					l-58.733,2.509c-5.522,0.236-10.458,3.515-12.816,8.514l-9.451,20.037c-1.348,2.857,0.581,6.177,3.729,6.423
					c15.97,1.245,57.22,4.303,77.271,4.303c20.051,0,61.301-3.058,77.271-4.303C415.995,331.711,417.923,328.391,416.575,325.534z"
					/>
				<g>
					<path style="fill:#F7EFCD;" d="M283.763,379.107c0.367,1.362-0.739,2.669-2.143,2.532c-9.377-0.919-38.598-4.311-43.711-11.308
						c-1.981-2.711-2.271-5.195-1.759-7.314c1.105-4.569,6.01-7.126,10.508-5.76l31.012,9.417c1.859,0.565,3.296,2.048,3.801,3.924
						L283.763,379.107z"/>
					<path style="fill:#707078;" d="M243.373,373.546c-1.981-2.711-2.271-5.195-1.759-7.314c1.105-4.569,6.01-7.126,10.508-5.76
						l28.758,8.732c-0.708-1.2-1.843-2.115-3.21-2.53l-31.012-9.417c-4.498-1.366-9.403,1.191-10.508,5.76
						c-0.512,2.119-0.222,4.603,1.759,7.314c1.095,1.499,3.301,2.83,6.176,4.009C243.818,374.081,243.572,373.817,243.373,373.546z"
						/>
				</g>
				<g>
					<path style="fill:#F7EFCD;" d="M389.642,379.107c-0.367,1.362,0.739,2.669,2.143,2.532c9.377-0.919,38.598-4.311,43.711-11.308
						c1.981-2.711,2.271-5.195,1.759-7.314c-1.105-4.569-6.01-7.126-10.508-5.76l-31.012,9.417
						c-1.859,0.565-3.296,2.048-3.801,3.924L389.642,379.107z"/>
					<path style="fill:#707078;" d="M430.032,373.546c1.981-2.711,2.271-5.195,1.759-7.314c-1.104-4.569-6.01-7.126-10.508-5.76
						l-28.758,8.732c0.708-1.2,1.843-2.115,3.21-2.53l31.012-9.417c4.498-1.366,9.403,1.191,10.508,5.76
						c0.512,2.119,0.222,4.603-1.759,7.314c-1.095,1.499-3.301,2.83-6.176,4.009C429.588,374.081,429.834,373.817,430.032,373.546z"
						/>
				</g>
				<path style="fill:#DDB305;" d="M252.968,390.903c-10.53,0-20.109-4.056-27.274-10.684l2.143,39.23
					c0.333,6.104,5.38,10.883,11.493,10.883h96.244h96.244c6.113,0,11.16-4.779,11.493-10.883l2.143-39.23
					c-7.164,6.628-16.744,10.684-27.274,10.684H252.968z"/>
				<path style="fill:#010101;" d="M371.567,405.275h-58.592c-1.661,0-3.008-1.346-3.008-3.008l0,0c0-1.661,1.346-3.007,3.008-3.007
					h58.592c1.661,0,3.008,1.346,3.008,3.007l0,0C374.575,403.928,373.228,405.275,371.567,405.275z"/>
				<path style="opacity:0.44;fill:#F7EFCD;" d="M345.614,294.903l-19.133,41.203c3.334,0.098,6.408,0.154,9.094,0.154
					c2.878,0,6.203-0.065,9.818-0.176l18.755-40.389L345.614,294.903z"/>
				<path style="opacity:0.44;fill:#F7EFCD;" d="M369.483,295.923l-18.558,39.963c2.893-0.116,5.914-0.256,9.007-0.413
					l18.195-39.181L369.483,295.923z"/>
				<g>
					<path style="fill:#707078;" d="M383.715,370.751c-10.501-0.245-35.576-0.8-47.012-0.8c-11.435,0-36.511,0.555-47.012,0.8
						c-2.353,0.055-3.952,2.399-3.156,4.613l1.355,3.768c1.213,3.371,4.206,5.784,7.758,6.253l36.196,4.781
						c3.225,0.426,6.492,0.426,9.717,0l36.196-4.781c3.552-0.469,6.545-2.882,7.758-6.253l1.355-3.768
						C387.667,373.15,386.068,370.806,383.715,370.751z"/>
					<path style="fill:#242223;" d="M379.185,375.176h-84.964c-0.355,0-0.643-0.288-0.643-0.643l0,0
						c0-0.355,0.288-0.643,0.643-0.643h84.964c0.355,0,0.643,0.288,0.643,0.643l0,0C379.828,374.888,379.54,375.176,379.185,375.176
						z"/>
					<path style="fill:#242223;" d="M378.325,377.768H295.08c-0.355,0-0.643-0.288-0.643-0.643l0,0c0-0.355,0.288-0.643,0.643-0.643
						h83.245c0.355,0,0.643,0.288,0.643,0.643l0,0C378.968,377.48,378.68,377.768,378.325,377.768z"/>
					<path style="fill:#242223;" d="M377.69,380.359h-81.974c-0.355,0-0.643-0.288-0.643-0.643l0,0c0-0.355,0.288-0.643,0.643-0.643
						h81.974c0.355,0,0.643,0.288,0.643,0.643l0,0C378.333,380.071,378.045,380.359,377.69,380.359z"/>
					<path style="fill:#242223;" d="M374.674,384.335h-75.943c-0.61,0-1.105-0.495-1.105-1.105l0,0c0-0.61,0.495-1.105,1.105-1.105
						h75.943c0.61,0,1.105,0.495,1.105,1.105l0,0C375.779,383.841,375.284,384.335,374.674,384.335z"/>
				</g>
				<g>
					<path style="fill:#F7EFCD;" d="M428.749,421.331h-18.683c-1.376,0-2.491-1.115-2.491-2.491v-6.161
						c0-1.376,1.115-2.491,2.491-2.491h23.089c1.376,0,2.491,1.115,2.491,2.491v1.755
						C435.646,418.243,432.558,421.331,428.749,421.331z"/>
					<path style="fill:#CCC6A9;" d="M433.155,410.189h-0.651c0.016,0.115,0.035,0.229,0.035,0.348v1.754
						c0,3.809-3.088,6.897-6.897,6.897H407.61c0.171,1.209,1.199,2.143,2.456,2.143h18.683c3.809,0,6.897-3.088,6.897-6.897v-1.755
						C435.646,411.304,434.531,410.189,433.155,410.189z"/>
				</g>
				<g>
					<path style="fill:#F7EFCD;" d="M244.044,421.331h18.683c1.376,0,2.491-1.115,2.491-2.491v-6.161
						c0-1.376-1.115-2.491-2.491-2.491h-23.089c-1.376,0-2.491,1.115-2.491,2.491v1.755
						C237.146,418.243,240.234,421.331,244.044,421.331z"/>
					<path style="fill:#CCC6A9;" d="M239.637,410.189h0.651c-0.016,0.115-0.035,0.229-0.035,0.348v1.754
						c0,3.809,3.088,6.897,6.897,6.897h18.032c-0.171,1.209-1.199,2.143-2.456,2.143h-18.683c-3.809,0-6.897-3.088-6.897-6.897
						v-1.755C237.146,411.304,238.262,410.189,239.637,410.189z"/>
				</g>
				<g>
					<path style="fill:#F9CE0E;" d="M357.753,287.982h-44.357l0,0c0-7.337,5.948-13.286,13.286-13.286h17.786
						C351.805,274.696,357.753,280.644,357.753,287.982L357.753,287.982z"/>
					<g>
						<text transform="matrix(1 0 0 1 322.4962 284.6823)" style="font-family:'Metropolis-Medium'; font-size:11.4827px;">TAXI</text>
					</g>
					<g>
						<rect x="315.603" y="285.861" style="fill:#E8BD07;" width="39.944" height="2.828"/>
						<rect x="318.375" y="285.861" width="2.772" height="1.414"/>
						<g>
							<rect x="318.875" y="286.361" style="fill:#FFFFFF;" width="1.772" height="0.413"/>
							<polygon points="321.147,285.861 318.375,285.861 318.375,287.275 321.147,287.275 321.147,285.861 							"/>
						</g>
						<g>
							<rect x="324.139" y="286.361" style="fill:#FFFFFF;" width="1.772" height="0.413"/>
							<polygon points="326.411,285.861 323.638,285.861 323.638,287.275 326.411,287.275 326.411,285.861 							"/>
						</g>
						<g>
							<rect x="329.563" y="286.361" style="fill:#FFFFFF;" width="1.773" height="0.413"/>
							<polygon points="331.835,285.861 329.063,285.861 329.063,287.275 331.835,287.275 331.835,285.861 							"/>
						</g>
						<g>
							<rect x="334.826" y="286.361" style="fill:#FFFFFF;" width="1.772" height="0.413"/>
							<polygon points="337.098,285.861 334.326,285.861 334.326,287.275 337.098,287.275 337.098,285.861 							"/>
						</g>
						<g>
							<rect x="340.063" y="286.361" style="fill:#FFFFFF;" width="1.773" height="0.413"/>
							<polygon points="342.335,285.861 339.563,285.861 339.563,287.275 342.335,287.275 342.335,285.861 							"/>
						</g>
						<g>
							<rect x="345.326" y="286.361" style="fill:#FFFFFF;" width="1.772" height="0.413"/>
							<polygon points="347.598,285.861 344.826,285.861 344.826,287.275 347.598,287.275 347.598,285.861 							"/>
						</g>
						<g>
							<rect x="350.63" y="286.361" style="fill:#FFFFFF;" width="1.771" height="0.413"/>
							<polygon points="352.902,285.861 350.129,285.861 350.129,287.275 352.902,287.275 352.902,285.861 							"/>
						</g>
						<g>
							<rect x="321.52" y="287.774" style="fill:#FFFFFF;" width="1.772" height="0.414"/>
							<polygon points="323.792,287.275 321.02,287.275 321.02,288.689 323.792,288.689 323.792,287.275 							"/>
						</g>
						<g>
							<rect x="316.102" y="287.774" style="fill:#FFFFFF;" width="1.773" height="0.414"/>
							<polygon points="318.375,287.275 315.603,287.275 315.603,288.689 318.375,288.689 318.375,287.275 							"/>
						</g>
						<g>
							<rect x="326.783" y="287.774" style="fill:#FFFFFF;" width="1.772" height="0.414"/>
							<polygon points="329.056,287.275 326.283,287.275 326.283,288.689 329.056,288.689 329.056,287.275 							"/>
						</g>
						<g>
							<rect x="332.208" y="287.774" style="fill:#FFFFFF;" width="1.771" height="0.414"/>
							<polygon points="334.48,287.275 331.708,287.275 331.708,288.689 334.48,288.689 334.48,287.275 							"/>
						</g>
						<g>
							<rect x="337.471" y="287.774" style="fill:#FFFFFF;" width="1.772" height="0.414"/>
							<polygon points="339.743,287.275 336.971,287.275 336.971,288.689 339.743,288.689 339.743,287.275 							"/>
						</g>
						<g>
							<rect x="342.708" y="287.774" style="fill:#FFFFFF;" width="1.771" height="0.414"/>
							<polygon points="344.98,287.275 342.208,287.275 342.208,288.689 344.98,288.689 344.98,287.275 							"/>
						</g>
						<g>
							<rect x="347.971" y="287.774" style="fill:#FFFFFF;" width="1.772" height="0.414"/>
							<polygon points="350.243,287.275 347.471,287.275 347.471,288.689 350.243,288.689 350.243,287.275 							"/>
						</g>
						<g>
							<rect x="353.274" y="287.774" style="fill:#FFFFFF;" width="1.772" height="0.414"/>
							<polygon points="355.547,287.275 352.775,287.275 352.775,288.689 355.547,288.689 355.547,287.275 							"/>
						</g>
					</g>
				</g>
			</g>
		</g>
		<g>
			<polygon style="fill:#F5F0E9;" points="285.117,220.07 204.423,234.615 204.423,48.218 285.637,33.578 359.011,47.129 
				445.625,30.697 445.625,217.115 359.026,233.473 359.026,233.473 			"/>
			<polygon style="fill:#E2DACD;" points="285.624,213.882 210.423,227.439 210.423,53.233 285.624,39.676 			"/>
			<polygon style="fill:#CAC4B6;" points="359.026,227.619 285.624,213.882 285.624,39.676 359.026,53.233 			"/>
			<polygon style="fill:#E2DACD;" points="439.626,212.147 359.026,227.619 359.026,53.233 439.626,37.942 			"/>
			<polygon style="fill:#B4CF80;" points="383.086,153.777 373.208,206.37 405.579,192.2 404.443,179.307 			"/>
			<polygon style="fill:#ABC479;" points="285.624,159.695 285.624,184.89 299.412,186.827 			"/>
			<polygon style="fill:#99DAFF;" points="232.144,181.012 250.58,219.734 253.401,183.998 			"/>
			<rect x="222.02" y="62.322" style="fill:#D4CCC0;" width="20.753" height="12.229"/>
			<rect x="412.885" y="171.735" style="fill:#D4CCC0;" width="19.668" height="28.639"/>
			<polygon style="fill:#D4CCC0;" points="424.454,42.928 416.484,71.466 434.738,68.437 434.738,41.479 			"/>
			<polygon style="fill:#D4CCC0;" points="339.611,159.695 340.961,197.959 355.809,200.373 353.302,161.129 			"/>
			<polygon style="fill:#D4CCC0;" points="229.895,185.626 243.585,217.82 218.132,222.255 			"/>
			<polygon style="opacity:0.14;fill:#CAC4B6;" points="359.026,227.619 285.624,213.882 285.624,39.676 359.026,53.233 			"/>
			<path style="fill:#FFFFFF;" d="M406.934,166.587l0.009,0.06l27.47-5.492l-3.217-79.791h-23.207l11.715-39.643l-3.976,0.754
				L403.17,84.964h24.569l2.953,73.269l-24.067,4.845L401,99.276l-13.967-2.803l14.354-51.277l-3.947,0.749l-13.945,49.818
				l-59.931-12.028l-13.812,80.212l-74.009-53.899V95.314l36.634,8.272l-16.777-58.498l-3.831,0.691l15.473,52.956l-35.098-7.925
				v16.615l-21.721-16.292v4.926l21.721,15.819v53.701l-21.721,35.598v6.909l21.721-35.598v8.522l21.257,2.986l-2.858,36.208
				l3.662-0.66l2.767-35.046l48.777,6.852l-20.868-41.066l27.436,19.98l5.581-32.41l9.181,11.293
				c2.679,3.296,6.541,5.086,10.567,5.086c1.551,0,3.126-0.266,4.667-0.813c5.334-1.895,8.851-6.662,9.11-12.26l10.476-12.712
				l18.197,21.753l-10.878,57.915l-15.093,6.607l-8.7-6.85c-5.071-3.993-11.564-5.357-17.814-3.747
				c-6.25,1.612-11.273,5.949-13.781,11.896l-1.226,2.909l3.621,0.678l0.922-2.187c2.067-4.905,6.209-8.481,11.363-9.809
				c5.153-1.33,10.507-0.204,14.687,3.09l7.187,5.659l-15.428,6.753l6.288,1.177l68.148-29.829L406.934,166.587z M299.412,186.827
				l-63.669-8.943v-11.293v-0.569v-0.489v-51.032l42.727,31.116L299.412,186.827z M347.839,139.852v0.646
				c0,5.266-3.477,8.378-6.731,9.533c-3.255,1.156-7.915,0.935-11.236-3.152l-11.163-13.732l7.776-45.154l54.995,11.037
				L347.839,139.852z M364.228,125.623l21.253-25.791l12.171,2.443l6.238,70.761L364.228,125.623z M373.208,206.37l9.878-52.593
				l21.356,25.53l1.137,12.893L373.208,206.37z"/>
			<g>
				<g>
					<polygon style="fill:#FF4838;" points="236.575,152.436 222.02,152.436 222.02,148.836 234.911,148.836 256.235,123.777 
						292.777,123.777 304.341,86.317 324.778,84.336 358.105,78.347 374.186,60.642 389.117,58.316 389.67,61.874 375.996,64.003 
						359.947,81.673 325.198,87.912 307.073,89.668 295.433,127.376 257.899,127.376 					"/>
				</g>
				<g>
					<g>
						<path style="fill:#F9CE0E;" d="M401.703,32.018c0-6.798-5.511-12.309-12.31-12.309c-6.798,0-12.31,5.511-12.31,12.309
							c0,2.232,0.597,4.323,1.635,6.127l0,0l10.674,18.03l10.674-18.03l0,0C401.106,36.34,401.703,34.249,401.703,32.018z"/>
						
							<ellipse transform="matrix(0.932 -0.3624 0.3624 0.932 14.8637 143.2823)" style="fill:#FFFFFF;" cx="389.394" cy="32.018" rx="8.924" ry="8.924"/>
					</g>
					<g>
						<rect x="385.544" y="31.744" style="fill:#F9CE0E;" width="8.235" height="4.692"/>
						<polyline style="fill:#F9CE0E;" points="384.298,31.744 389.649,27.245 395.024,31.744 						"/>
					</g>
				</g>
				<g>
					<g>
						<path style="fill:#FF4838;" d="M235.041,122.993c0-6.798-5.511-12.309-12.309-12.309c-6.798,0-12.309,5.511-12.309,12.309
							c0,2.232,0.597,4.323,1.635,6.127l0,0l10.674,18.03l10.674-18.03l0,0C234.445,127.316,235.041,125.225,235.041,122.993z"/>
						
							<ellipse transform="matrix(0.933 -0.3599 0.3599 0.933 -29.3385 88.3909)" style="fill:#FFFFFF;" cx="222.732" cy="122.993" rx="8.924" ry="8.924"/>
					</g>
					<path style="fill:#FF4838;" d="M228.223,124.986c0.002-0.667-0.026-1.548-0.026-1.548s0-0.003-0.001-0.007
						c0-0.001,0-0.002,0-0.003c0-0.002-0.001-0.005-0.001-0.008c0-0.001,0-0.002-0.001-0.004c-0.001-0.003-0.001-0.007-0.002-0.011
						c0-0.001-0.001-0.003-0.001-0.004c-0.001-0.005-0.002-0.01-0.003-0.015c0-0.002-0.001-0.003-0.001-0.005
						c-0.001-0.006-0.003-0.012-0.004-0.019c0-0.001-0.001-0.003-0.001-0.004c-0.002-0.007-0.004-0.015-0.006-0.023
						c0-0.001-0.001-0.003-0.001-0.004c-0.002-0.008-0.005-0.017-0.007-0.027c0-0.001-0.001-0.002-0.001-0.003
						c-0.003-0.01-0.006-0.02-0.009-0.031c0,0,0-0.001,0-0.001c-0.093-0.294-0.383-0.907-1.248-1.296c0,0,0.879,0.117,0.996-0.234
						c0.11-0.328-0.088-0.555-0.832-0.535c-0.185,0.005-0.357,0.117-0.417,0.292c-0.004,0.012-0.008,0.025-0.011,0.038l-0.846-1.343
						c-0.094-0.149-0.256-0.243-0.432-0.251l-1.066-0.046l-0.139-0.924c-0.021-0.142-0.144-0.248-0.288-0.248h-1.13h-0.026h-1.13
						c-0.144,0-0.266,0.105-0.288,0.248l-0.139,0.924l-1.066,0.046c-0.176,0.008-0.338,0.101-0.432,0.251l-0.846,1.343
						c-0.003-0.013-0.007-0.026-0.011-0.038c-0.059-0.176-0.231-0.287-0.417-0.292c-0.744-0.02-0.941,0.207-0.832,0.535
						c0.117,0.351,0.996,0.234,0.996,0.234c-0.083,0.037-0.159,0.076-0.232,0.117h0c0,0,0,0,0,0
						c-0.687,0.386-0.932,0.913-1.016,1.179c0,0,0,0.001,0,0.001c-0.003,0.011-0.006,0.021-0.009,0.031
						c0,0.001-0.001,0.002-0.001,0.003c-0.003,0.009-0.005,0.018-0.007,0.027c0,0.001-0.001,0.003-0.001,0.004
						c-0.002,0.008-0.004,0.016-0.006,0.023c0,0.002-0.001,0.003-0.001,0.004c-0.002,0.007-0.003,0.013-0.004,0.019
						c0,0.002-0.001,0.003-0.001,0.005c-0.001,0.005-0.002,0.011-0.003,0.015c0,0.001-0.001,0.003-0.001,0.004
						c-0.001,0.004-0.002,0.008-0.002,0.011c0,0.001,0,0.002-0.001,0.004c0,0.003-0.001,0.006-0.001,0.008
						c0,0.001,0,0.002-0.001,0.003c-0.001,0.004-0.001,0.007-0.001,0.007s-0.015,0.473-0.022,0.988
						c-0.009,0.538-0.009,1.051,0.022,1.238c0.059,0.351,0.293,0.469,0.293,0.469h0l0,0.019v0.537c0,0.064,0.012,0.125,0.033,0.184
						c0.004,0.011,0.007,0.022,0.011,0.032c0.002,0.005,0.004,0.009,0.007,0.013c0.008,0.017,0.016,0.034,0.026,0.05
						c0.005,0.008,0.011,0.016,0.016,0.024c0.007,0.01,0.013,0.02,0.02,0.03c0.047,0.062,0.107,0.115,0.179,0.152
						c0.131,0.068,0.256,0.093,0.372,0.093c0.004,0,0.008,0,0.011,0c0.004,0,0.008,0,0.011,0c0.116,0,0.241-0.025,0.372-0.093
						c0.072-0.037,0.132-0.09,0.179-0.152c0.007-0.009,0.014-0.02,0.02-0.029c0.005-0.008,0.011-0.016,0.016-0.024
						c0.01-0.016,0.018-0.033,0.026-0.05c0.002-0.005,0.005-0.009,0.007-0.013c0.004-0.011,0.008-0.021,0.011-0.032
						c0.021-0.058,0.033-0.12,0.033-0.184v-0.497h3.661h0.319h3.662l0.003,0.511c0,0.184,0.096,0.356,0.257,0.445
						c0.194,0.107,0.48,0.189,0.798,0.025c0.18-0.093,0.292-0.281,0.292-0.484v-0.555h0.005c0,0,0.229-0.117,0.288-0.469
						C228.218,125.542,228.224,125.293,228.223,124.986z"/>
				</g>
			</g>
			<circle style="fill:#FFFFFF;" cx="307.474" cy="70.052" r="13.025"/>
			
				<ellipse transform="matrix(0.9248 -0.3804 0.3804 0.9248 -3.5342 122.2196)" style="fill:#99DAFF;" cx="307.474" cy="70.052" rx="9.957" ry="9.958"/>
		</g>
	</g>
</g>
</svg>
